<?xml version="1.0" encoding="UTF-8"?><svg id="b" xmlns="http://www.w3.org/2000/svg" width="288" height="288" viewBox="0 0 288 288"><g id="c"><rect width="288" height="288" style="fill:none;"/><g id="d"><path d="M194.09,92.94l-.09.69-1.76,13.84-57.08,29.22-3.6,1.84,3.32,2.31,57.43,39.97-.26,14.01v.36h-3.66l-3.13-2.29-57.91-45.54-2.27-1.79-1.37,2.55-23.79,44.29h-7.29v-17.59l2.18-3.03,22.61-31.5,1.22-1.7-1.5-1.46-22.61-22.03-1.97-1.92v-17.54h.32l31.17,34.46,1.38,1.53,1.73-1.12,54.65-35.26.03-.02.03-.02,3.22-2.23h8.97M194.49,90.52h-10.12l-3.84,2.67-54.65,35.26-31.89-35.26h-3.82s0,20.99,0,20.99l2.7,2.64,22.61,22.04-22.61,31.5-2.64,3.67v20.8h2.64s8.53,0,8.53,0l24.48-45.57,57.94,45.57,3.8,2.79h6.88v-2.79l.28-15.26-58.5-40.71,58.22-29.8,1.92-15.11,2.8-2.38-4.73-1.04h0Z" style="fill:#600528;"/><path d="M77,77v134h134V77H77ZM193.85,93.18l-26.76,40-56.1-40h82.86ZM191.58,194.82h-73.15l48.65-34.41,24.5,34.41ZM92.86,99.66l60.62,47.14-60.62,45.11v-92.25ZM194.49,165.36l-13.8-18.57,13.8-24.8v43.37Z" style="fill:#9c0c35;"/></g></g></svg>