<?xml version="1.0" encoding="UTF-8"?><svg id="b" xmlns="http://www.w3.org/2000/svg" width="41.43" height="52.83" viewBox="0 0 41.43 52.83"><g id="c"><g id="d"><path d="M35.92,5.18l-.52,4.07-17.52,8.97-1.48.76,1.37.95,17.64,12.27-.07,4.06h-.8l-.88-.65-17.9-14.08-.94-.74-.56,1.05-7.28,13.55h-1.85v-5.1l.63-.87,6.98-9.73.5-.7-.62-.6-6.98-6.81-.53-.52v-4.77l9.29,10.27.57.63.71-.46,16.91-10.91.93-.65h2.41M36.33,4.18h-3.13l-1.19.82L15.13,15.89,5.28,5h-1.18s0,6.49,0,6.49l.83.81,6.98,6.81-6.98,9.73-.81,1.13v6.43h.81s2.64,0,2.64,0l7.56-14.08,17.9,14.08,1.18.86h2.12v-.86l.09-4.71-18.07-12.58,17.99-9.21.59-4.67.86-.74-1.46-.32h0Z" style="fill:#eee;"/><path d="M.03,0v41.4h41.4V0H.03ZM36.13,5l-8.27,12.36L10.53,5h25.6ZM35.43,36.4H12.83l15.03-10.63,7.57,10.63ZM4.93,7l18.73,14.56-18.73,13.94V7ZM36.33,27.3l-4.26-5.74,4.26-7.66v13.4Z" style="fill:#eee;"/><path d="M4.28,51.12v-4.04l-1.35,2.94h-.66l-1.38-2.94v4.04h-.89v-6.04h.89l1.71,3.76,1.68-3.76h.89v6.04h-.89Z" style="fill:#eee;"/><path d="M7.9,51.98c-.08.24-.18.41-.3.54-.23.24-.54.31-.86.31h-.34v-.78h.21c.35,0,.48-.11.6-.46l.23-.67-1.46-4.1h.89l1,3.03.97-3.03h.9l-1.84,5.16Z" style="fill:#eee;"/><path d="M10.39,51.12v-5.94h2.41c1.07,0,1.78.64,1.78,1.63,0,.45-.18.91-.68,1.2.66.23,1,.79,1,1.46,0,.91-.62,1.65-1.85,1.65h-2.66ZM11.08,47.8h1.69c.66,0,1.11-.38,1.11-.99s-.44-1-1.12-1h-1.68v1.99ZM11.08,50.5h2.01c.65,0,1.11-.37,1.11-1.02s-.39-1.08-1.12-1.08h-2v2.1Z" style="fill:#eee;"/><path d="M15.86,45.51c0-.26.18-.46.44-.46s.44.2.44.46-.18.46-.44.46-.44-.19-.44-.46ZM15.97,51.12v-4.2h.65v4.2h-.65Z" style="fill:#eee;"/><path d="M21.79,49.68c-.24.93-1.04,1.53-2.01,1.53-1.18,0-2.12-.94-2.12-2.19s.94-2.19,2.12-2.19c.91,0,1.8.58,1.99,1.5h-.67c-.23-.55-.72-.89-1.32-.89-.82,0-1.46.69-1.46,1.57s.65,1.58,1.46,1.58c.6,0,1.08-.34,1.33-.91h.68Z" style="fill:#eee;"/><path d="M24.62,46.83c1.24,0,2.17.96,2.17,2.19s-.92,2.19-2.17,2.19-2.17-.96-2.17-2.19.93-2.19,2.17-2.19ZM26.13,49.03c0-.89-.63-1.57-1.5-1.57s-1.5.68-1.5,1.57.64,1.56,1.5,1.56,1.5-.68,1.5-1.56Z" style="fill:#eee;"/><path d="M31.64,49.68c-.23.93-1.04,1.53-2.01,1.53-1.18,0-2.12-.94-2.12-2.19s.94-2.19,2.12-2.19c.91,0,1.8.58,1.99,1.5h-.67c-.23-.55-.72-.89-1.32-.89-.82,0-1.46.69-1.46,1.57s.65,1.58,1.46,1.58c.6,0,1.08-.34,1.33-.91h.68Z" style="fill:#eee;"/><path d="M36.44,49.68c-.23.93-1.04,1.53-2.01,1.53-1.18,0-2.12-.94-2.12-2.19s.94-2.19,2.12-2.19c.91,0,1.8.58,1.99,1.5h-.67c-.23-.55-.72-.89-1.32-.89-.82,0-1.46.69-1.46,1.57s.65,1.58,1.46,1.58c.6,0,1.08-.34,1.33-.91h.68Z" style="fill:#eee;"/><path d="M40.81,51.12l-.04-.72c-.32.48-.87.81-1.59.81-1.17,0-2.06-.94-2.06-2.2s.89-2.18,2.06-2.18c.71,0,1.27.31,1.59.81l.04-.72h.63v4.2h-.62ZM40.78,49.01c0-.88-.65-1.57-1.53-1.57s-1.47.69-1.47,1.57.61,1.59,1.47,1.59,1.53-.72,1.53-1.59Z" style="fill:#eee;"/></g></g></svg>