<?xml version="1.0" encoding="UTF-8"?><svg id="b" xmlns="http://www.w3.org/2000/svg" width="41.4" height="52.82" viewBox="0 0 41.4 52.82"><g id="c"><g id="d"><path d="M36.18,4.93l-.03.21-.54,4.28-17.63,9.03-1.11.57,1.03.71,17.74,12.35-.08,4.33v.11h-1.13l-.96-.7-17.9-14.08-.7-.55-.42.79-7.35,13.68h-2.25v-5.43l.67-.94,6.98-9.73.38-.52-.46-.45-6.98-6.81-.61-.59v-5.42h.1l9.63,10.65.43.47.54-.35,16.9-10.91.99-.69h2.77M36.3,4.18h-3.13l-1.19.82L15.1,15.89,5.25,5h-1.18s0,6.49,0,6.49l.83.81,6.98,6.81-6.98,9.73-.81,1.13v6.43h.81s2.64,0,2.64,0l7.56-14.08,17.9,14.08,1.18.86h2.12v-.86l.09-4.71-18.07-12.58,17.99-9.21.59-4.67.86-.74-1.46-.32h0Z" style="fill:#600528;"/><path d="M0,0v41.4h41.4V0H0ZM36.1,5l-8.27,12.36L10.5,5h25.6ZM35.4,36.4H12.8l15.03-10.63,7.57,10.63ZM4.9,7l18.73,14.56-18.73,13.94V7ZM36.3,27.3l-4.26-5.74,4.26-7.66v13.4Z" style="fill:#9c0c35;"/><path d="M4.27,51.12v-4.03l-1.35,2.94h-.66l-1.38-2.94v4.03h-.89v-6.03h.89l1.71,3.75,1.68-3.75h.89v6.03h-.89Z" style="fill:#eee;"/><path d="M7.88,51.98c-.08.24-.18.41-.3.53-.23.24-.53.31-.85.31h-.34v-.78h.21c.35,0,.48-.11.6-.46l.23-.67-1.45-4.09h.89l.99,3.02.97-3.02h.9l-1.84,5.15Z" style="fill:#eee;"/><path d="M10.39,51.12v-5.94h2.67c1.04,0,1.79.66,1.79,1.65,0,.5-.19.91-.67,1.23.66.25.96.79.96,1.42,0,.97-.71,1.65-1.79,1.65h-2.96ZM11.65,47.63h1.23c.45,0,.71-.3.71-.69,0-.43-.32-.69-.76-.69h-1.18v1.38ZM11.65,50.08h1.45c.45,0,.73-.31.73-.71,0-.43-.27-.75-.73-.75h-1.45v1.46Z" style="fill:#9c0c35;"/><path d="M15.84,45.57c0-.4.31-.72.71-.72s.71.31.71.72-.31.72-.71.72-.71-.3-.71-.72ZM15.94,51.12v-4.2h1.22v4.2h-1.22Z" style="fill:#9c0c35;"/><path d="M22.22,49.46c-.18,1.05-1.03,1.75-2.1,1.75-1.27,0-2.19-.93-2.19-2.19s.91-2.19,2.19-2.19c1.02,0,1.93.66,2.08,1.7h-1.16c-.15-.38-.5-.63-.91-.63-.59,0-1.03.48-1.03,1.11s.44,1.11,1.03,1.11c.43,0,.77-.25.92-.67h1.17Z" style="fill:#9c0c35;"/><path d="M24.86,46.83c1.29,0,2.21.92,2.21,2.19s-.92,2.19-2.21,2.19-2.22-.92-2.22-2.19.92-2.19,2.22-2.19ZM25.9,49.02c0-.64-.43-1.1-1.03-1.1s-1.04.47-1.04,1.1.43,1.09,1.04,1.09,1.03-.47,1.03-1.09Z" style="fill:#9c0c35;"/><path d="M31.83,49.46c-.18,1.05-1.03,1.75-2.09,1.75-1.27,0-2.19-.93-2.19-2.19s.91-2.19,2.19-2.19c1.02,0,1.93.66,2.08,1.7h-1.16c-.15-.38-.5-.63-.91-.63-.59,0-1.03.48-1.03,1.11s.44,1.11,1.03,1.11c.43,0,.77-.25.92-.67h1.16Z" style="fill:#9c0c35;"/><path d="M36.54,49.46c-.18,1.05-1.03,1.75-2.09,1.75-1.27,0-2.19-.93-2.19-2.19s.91-2.19,2.19-2.19c1.02,0,1.93.66,2.08,1.7h-1.16c-.15-.38-.5-.63-.91-.63-.59,0-1.03.48-1.03,1.11s.44,1.11,1.03,1.11c.43,0,.77-.25.92-.67h1.16Z" style="fill:#9c0c35;"/><path d="M40.35,51.12l-.1-.47c-.28.33-.69.56-1.32.56-1.13,0-1.95-.94-1.95-2.2s.83-2.18,1.95-2.18c.63,0,1.04.22,1.32.56l.09-.47h1.06v4.2h-1.05ZM40.24,49.01c0-.63-.43-1.1-1.05-1.1s-1.03.47-1.03,1.1.42,1.13,1.03,1.13,1.05-.49,1.05-1.13Z" style="fill:#9c0c35;"/></g></g></svg>