<?xml version="1.0" encoding="UTF-8"?><svg id="b" xmlns="http://www.w3.org/2000/svg" width="42.4" height="42.4" viewBox="0 0 42.4 42.4"><g id="c"><g id="d"><path d="M36.39,5.68l-.52,4.07-17.52,8.97-1.48.76,1.37.95,17.64,12.27-.07,4.06h-.8l-.88-.65-17.9-14.08-.94-.74-.56,1.05-7.28,13.55h-1.85v-5.1l.63-.87,6.98-9.73.5-.7-.62-.6-6.98-6.81-.53-.52v-4.77l9.29,10.27.57.63.71-.46,16.91-10.91.93-.65h2.41M36.8,4.68h-3.13l-1.19.82-16.88,10.89L5.75,5.5h-1.18s0,6.49,0,6.49l.83.81,6.98,6.81-6.98,9.73-.81,1.13v6.43h.81s2.64,0,2.64,0l7.56-14.08,17.9,14.08,1.18.86h2.12v-.86l.09-4.71-18.07-12.58,17.99-9.21.59-4.67.86-.74-1.46-.32h0Z" style="fill:#0c0c0c;"/><path d="M.5.5v41.4h41.4V.5H.5ZM36.6,5.5l-8.27,12.36L11,5.5h25.6ZM35.9,36.9H13.3l15.03-10.63,7.57,10.63ZM5.4,7.5l18.73,14.56-18.73,13.94V7.5ZM36.8,27.8l-4.26-5.74,4.26-7.66v13.4Z" style="fill:#0a0a0a; stroke:#0c0c0c; stroke-miterlimit:10;"/></g></g></svg>