<?xml version="1.0" encoding="UTF-8"?><svg id="b" xmlns="http://www.w3.org/2000/svg" width="41.44" height="7.97" viewBox="0 0 41.44 7.97"><g id="c"><path d="M4.28,6.27V2.23l-1.35,2.94h-.66L.89,2.23v4.04h-.89V.23h.89l1.71,3.76L4.28.23h.89v6.04h-.89Z" style="fill:#0c0c0c;"/><path d="M7.9,7.13c-.08.24-.18.41-.3.54-.23.24-.54.31-.86.31h-.34v-.78h.21c.35,0,.48-.11.6-.46l.23-.67-1.46-4.1h.89l1,3.03.97-3.03h.9l-1.84,5.16Z" style="fill:#0c0c0c;"/><path d="M10.41,6.27V.33h2.67c1.04,0,1.79.66,1.79,1.65,0,.5-.19.91-.67,1.23.66.25.97.79.97,1.42,0,.97-.71,1.65-1.79,1.65h-2.97ZM11.68,2.78h1.23c.45,0,.71-.3.71-.69,0-.43-.32-.69-.76-.69h-1.18v1.38ZM11.68,5.23h1.45c.45,0,.73-.31.73-.71,0-.43-.27-.75-.73-.75h-1.45v1.46Z" style="fill:#9c0c35;"/><path d="M15.87.72c0-.4.31-.72.71-.72s.71.31.71.72-.31.72-.71.72-.71-.3-.71-.72ZM15.97,6.27V2.07h1.22v4.2h-1.22Z" style="fill:#9c0c35;"/><path d="M22.25,4.61c-.18,1.05-1.03,1.75-2.1,1.75-1.27,0-2.19-.93-2.19-2.19s.91-2.19,2.19-2.19c1.02,0,1.93.66,2.08,1.7h-1.16c-.15-.38-.5-.63-.91-.63-.59,0-1.03.48-1.03,1.11s.44,1.11,1.03,1.11c.43,0,.77-.25.92-.67h1.17Z" style="fill:#9c0c35;"/><path d="M24.89,1.98c1.29,0,2.21.92,2.21,2.19s-.92,2.19-2.21,2.19-2.22-.92-2.22-2.19.92-2.19,2.22-2.19ZM25.93,4.17c0-.64-.43-1.1-1.03-1.1s-1.04.47-1.04,1.1.43,1.09,1.04,1.09,1.03-.47,1.03-1.09Z" style="fill:#9c0c35;"/><path d="M31.86,4.61c-.18,1.05-1.03,1.75-2.1,1.75-1.27,0-2.19-.93-2.19-2.19s.91-2.19,2.19-2.19c1.02,0,1.93.66,2.08,1.7h-1.16c-.15-.38-.5-.63-.91-.63-.59,0-1.03.48-1.03,1.11s.44,1.11,1.03,1.11c.43,0,.77-.25.92-.67h1.17Z" style="fill:#9c0c35;"/><path d="M36.58,4.61c-.18,1.05-1.03,1.75-2.1,1.75-1.27,0-2.19-.93-2.19-2.19s.91-2.19,2.19-2.19c1.02,0,1.93.66,2.08,1.7h-1.16c-.15-.38-.5-.63-.91-.63-.59,0-1.03.48-1.03,1.11s.44,1.11,1.03,1.11c.43,0,.77-.25.92-.67h1.17Z" style="fill:#9c0c35;"/><path d="M40.38,6.27l-.1-.47c-.28.33-.69.56-1.32.56-1.13,0-1.96-.94-1.96-2.2s.83-2.18,1.96-2.18c.63,0,1.04.22,1.32.55l.09-.47h1.06v4.2h-1.05ZM40.27,4.16c0-.63-.43-1.1-1.05-1.1s-1.04.47-1.04,1.1.42,1.13,1.04,1.13,1.05-.49,1.05-1.13Z" style="fill:#9c0c35;"/></g></svg>