<?xml version="1.0" encoding="UTF-8"?>
<svg id="b" xmlns="http://www.w3.org/2000/svg" width="133" height="109" viewBox="0 0 133 109">
  <g id="c">
    <g id="d">
      <path d="M100.84,78.19l-7.7-7.7-18.35,10.6,21.88,21.92h15.21c7.73,0,14.01-6.29,14.01-14.01v-10.8h-25.05Z" style="fill:#fff;" />
      <rect x="126.89" y="35.71" width="5.11" height="37.72" style="fill:#fff;" />
      <rect x="126.89" y="29.74" width="5.11" height="4.97" style="fill:#fff;" />
      <rect x="126.89" y="74.43" width="5.11" height="5.35" style="fill:#fff;" />
      <path d="M18.96,108h95.09c9.9,0,17.96-8.06,17.96-17.96v-9.26h-5.11v8.21c0,8.28-6.73,15.01-15.01,15.01H21.12c-8.28,0-15.01-6.73-15.01-15.01v-8.21H1v9.26c0,9.9,8.05,17.96,17.96,17.96Z" style="fill:#fff;" />
      <rect x="1" y="35.71" width="5.11" height="37.72" style="fill:#fff;" />
      <rect x="1" y="74.43" width="5.11" height="5.35" style="fill:#fff;" />
      <path d="M6.11,20.01c0-8.28,6.73-15.01,15.01-15.01h90.76c8.28,0,15.01,6.73,15.01,15.01v8.73h5.11v-9.79c0-9.9-8.05-17.96-17.96-17.96H18.96C9.05,1,1,9.05,1,18.96v9.79h5.11v-8.73Z" style="fill:#fff;" />
      <rect x="1" y="29.74" width="5.11" height="4.97" style="fill:#fff;" />
      <polygon points="67 25.02 41.5 39.87 41.5 69.57 67 84.42 92.72 69.57 92.41 40.19 67 25.02" style="fill:#fff;" />
      <polygon points="93.4 40.11 93.56 54.5 125.89 54.5 125.89 32.5 101.2 32.5 93.4 40.11" style="fill:#fff;" />
      <path d="M92.83,39.28l7.97-7.78h25.09v-11.49c0-7.73-6.29-14.01-14.01-14.01h-15.11l-22.14,22.41,18.21,10.87Z" style="fill:#fff;" />
      <polygon points="93.72 69.65 101.25 77.19 125.89 77.19 125.89 55.5 93.57 55.5 93.72 69.65" style="fill:#fff;" />
      <polygon points="67 23.86 73.74 27.88 95.36 6 38.69 6 60.1 27.88 67 23.86" style="fill:#fff;" />
      <path d="M59.24,81.06l-18.15-10.57-7.87,8.01H7.11v10.49c0,7.73,6.29,14.01,14.01,14.01h16.88l-.35-.35,21.59-21.59Z" style="fill:#fff;" />
      <polygon points="67 85.58 60.13 81.58 38.71 103 95.26 103 73.89 81.6 67 85.58" style="fill:#fff;" />
      <polygon points="40.5 69.66 40.5 55.5 7.11 55.5 7.11 77.5 32.79 77.5 40.5 69.66" style="fill:#fff;" />
      <path d="M41.07,38.96l18.14-10.56L37.29,6h-16.17c-7.73,0-14.01,6.29-14.01,14.01v11.49h26.09l7.87,7.46Z" style="fill:#fff;" />
      <polygon points="40.5 39.8 32.8 32.5 7.11 32.5 7.11 54.5 40.5 54.5 40.5 39.8" style="fill:#fff;" />
      <path
        d="M126.39,79.78h.5v-5.35h-.5v-1h.5v-37.72h-.5v-1h.5v-4.97h-.5v-1h.5v-8.73c0-8.28-6.73-15.01-15.01-15.01H21.12c-8.28,0-15.01,6.73-15.01,15.01v8.73h.5v1h-.5v4.97h.5v1h-.5v37.72h.5v1h-.5v5.35h.5v1h-.5v8.21c0,8.28,6.73,15.01,15.01,15.01h90.76c8.28,0,15.01-6.73,15.01-15.01v-8.21h-.5v-1ZM111.88,103h-15.21l.15.15-.71.71-.85-.85h-56.55l-.35.35-.35-.35h-16.88c-7.73,0-14.01-6.29-14.01-14.01v-10.49h-.11v-1h.11v-22h-.5v-1h.5v-22h-.11v-1h.11v-11.49c0-7.73,6.29-14.01,14.01-14.01h16.17l-.15-.15.71-.7.83.85h56.67l.84-.85.71.7-.15.15h15.11c7.73,0,14.01,6.29,14.01,14.01v11.49h.5v1h-.5v22h.5v1h-.5v21.69h.5v1h-.5v10.8c0,7.73-6.29,14.01-14.01,14.01Z" />
      <path
        d="M18.96,109h95.09c10.45,0,18.96-8.5,18.96-18.96V18.96c0-10.45-8.5-18.96-18.96-18.96H18.96C8.5,0,0,8.5,0,18.96v71.09c0,10.45,8.5,18.96,18.96,18.96ZM.5,80.78v-1h.5v-5.35h-.5v-1h.5v-37.72h-.5v-1h.5v-4.97h-.5v-1h.5v-9.79C1,9.05,9.05,1,18.96,1h95.09c9.9,0,17.96,8.05,17.96,17.96v9.79h.5v1h-.5v4.97h.5v1h-.5v37.72h.5v1h-.5v5.35h.5v1h-.5v9.26c0,9.9-8.05,17.96-17.96,17.96H18.96c-9.9,0-17.96-8.06-17.96-17.96v-9.26h-.5Z" />
      <polygon points="40.5 39.8 40.5 39.29 41.07 38.96 33.2 31.5 7.11 31.5 7.11 32.5 32.8 32.5 40.5 39.8" />
      <rect x="7" y="31.5" width=".11" height="1" />
      <polygon points="41.08 70.49 40.5 70.15 40.5 69.66 32.79 77.5 7.11 77.5 7.11 78.5 33.21 78.5 41.08 70.49" />
      <rect x="7" y="77.5" width=".11" height="1" />
      <path
        d="M93.58,69.51l.14.14-.15-14.15h-.51v-1h.49l-.15-14.39-.15.15-.7-.72.28-.27-18.21-10.87-.45.45-.71-.7.28-.28-6.73-4.02-6.9,4.02.27.28-.71.7-.45-.46-18.14,10.56.27.26-.69.73-.16-.15v14.7h.5v1h-.5v14.16l.14-.15.71.7-.27.28,18.15,10.57.41-.41.71.71-.22.22,6.87,4,6.89-3.98-.25-.25.71-.71.43.43,18.35-10.6-.27-.27.71-.71ZM67,84.42l-25.5-14.85v-29.7l25.5-14.85,25.41,15.17.31,29.39-25.72,14.85Z" />
      <polygon points="41.34 39.22 41.07 38.96 40.5 39.29 40.5 39.8 40.66 39.94 41.34 39.22" />
      <polygon points="40.64 69.51 40.5 69.66 40.5 70.15 41.08 70.49 41.36 70.21 40.64 69.51" />
      <polygon points="60.1 27.88 38.69 6 37.29 6 59.21 28.4 60.1 27.88" />
      <polygon points="37.86 5.15 37.14 5.85 37.29 6 38.69 6 37.86 5.15" />
      <polygon points="60.37 28.16 60.1 27.88 59.21 28.4 59.66 28.86 60.37 28.16" />
      <polygon points="74.62 28.41 96.76 6 95.36 6 73.74 27.88 74.62 28.41" />
      <polygon points="96.91 5.85 96.2 5.15 95.36 6 96.76 6 96.91 5.85" />
      <polygon points="74.17 28.86 74.62 28.41 73.74 27.88 73.46 28.16 74.17 28.86" />
      <polygon points="92.83 39.28 93.4 39.62 93.4 40.11 101.2 32.5 125.89 32.5 125.89 31.5 100.8 31.5 92.83 39.28" />
      <rect x="125.89" y="31.5" width=".5" height="1" />
      <polygon points="93.25 40.26 93.4 40.11 93.4 39.62 92.83 39.28 92.55 39.54 93.25 40.26" />
      <polygon points="93.72 69.65 93.73 70.15 93.14 70.49 100.84 78.19 125.89 78.19 125.89 77.19 101.25 77.19 93.72 69.65" />
      <rect x="125.89" y="77.19" width=".5" height="1" />
      <polygon points="93.72 69.65 93.58 69.51 92.87 70.21 93.14 70.49 93.73 70.15 93.72 69.65" />
      <polygon points="73.89 81.6 95.26 103 96.67 103 74.79 81.08 73.89 81.6" />
      <polygon points="96.11 103.85 96.82 103.15 96.67 103 95.26 103 96.11 103.85" />
      <polygon points="73.65 81.35 73.89 81.6 74.79 81.08 74.35 80.65 73.65 81.35" />
      <polygon points="59.24 81.06 37.65 102.65 38 103 38.71 103 60.13 81.58 59.24 81.06" />
      <polygon points="38.35 103.35 38.71 103 38 103 38.35 103.35" />
      <polygon points="59.65 80.65 59.24 81.06 60.13 81.58 60.35 81.35 59.65 80.65" />
      <polygon points="93.57 55.5 125.89 55.5 125.89 54.5 93.56 54.5 93.57 55.5" />
      <rect x="125.89" y="54.5" width=".5" height="1" />
      <polygon points="93.06 55.5 93.57 55.5 93.56 54.5 93.06 54.5 93.06 55.5" />
      <rect x="7.11" y="54.5" width="33.39" height="1" />
      <rect x="6.61" y="54.5" width=".5" height="1" />
      <rect x="40.5" y="54.5" width=".5" height="1" />
      <rect x="1" y="34.71" width="5.11" height="1" />
      <rect x="6.11" y="34.71" width=".5" height="1" />
      <rect x=".5" y="34.71" width=".5" height="1" />
      <rect x="1" y="73.43" width="5.11" height="1" />
      <rect x="6.11" y="73.43" width=".5" height="1" />
      <rect x=".5" y="73.43" width=".5" height="1" />
      <rect x="126.89" y="73.43" width="5.11" height="1" />
      <rect x="126.39" y="73.43" width=".5" height="1" />
      <rect x="132" y="73.43" width=".5" height="1" />
      <rect x="126.89" y="34.71" width="5.11" height="1" />
      <rect x="126.39" y="34.71" width=".5" height="1" />
      <rect x="132" y="34.71" width=".5" height="1" />
      <rect x="126.89" y="28.74" width="5.11" height="1" />
      <rect x="126.39" y="28.74" width=".5" height="1" />
      <rect x="132" y="28.74" width=".5" height="1" />
      <rect x="1" y="28.74" width="5.11" height="1" />
      <rect x="6.11" y="28.74" width=".5" height="1" />
      <rect x=".5" y="28.74" width=".5" height="1" />
      <rect x="1" y="79.78" width="5.11" height="1" />
      <rect x="6.11" y="79.78" width=".5" height="1" />
      <rect x=".5" y="79.78" width=".5" height="1" />
      <rect x="126.89" y="79.78" width="5.11" height="1" />
      <rect x="126.39" y="79.78" width=".5" height="1" />
      <rect x="132" y="79.78" width=".5" height="1" />
    </g>
  </g>
</svg>