<?xml version="1.0" encoding="UTF-8"?>
<svg id="b" xmlns="http://www.w3.org/2000/svg" width="133" height="109" viewBox="0 0 133 109">
  <g id="c">
    <g id="d">
      <path d="M43.53,27.98c.66,1.68,5.53,14.84,0,27.05,4.56,14.79.62,25.48,0,26.99.56,1.69,4.47,14.41.19,25.98h45.06c-4.28-11.57-.37-24.3.19-25.98-.61-1.51-4.56-12.2,0-26.99-5.53-12.21-.67-25.37,0-27.05-.55-1.68-4.48-14.51-.17-26.98h-45.09c4.31,12.47.38,25.31-.17,26.98Z" style="fill:#fff;" />
      <path d="M42.65,1h-23.69C9.05,1,1,9.05,1,18.96v8.54h41.64c.69-2.17,4.28-14.57,0-26.5Z" style="fill:#fff;" />
      <path d="M89.86,27.5h42.14v-8.54c0-9.9-8.05-17.96-17.96-17.96h-24.19c-4.28,11.96-.68,24.35,0,26.5Z" style="fill:#fff;" />
      <path d="M89.83,54.5h42.17v-26h-42.16c-.79,2.05-5.17,14.46-.01,26Z" style="fill:#fff;" />
      <path d="M42.63,55.5H1v26h41.67c.71-1.82,4.23-11.98-.04-26Z" style="fill:#fff;" />
      <path d="M42.66,28.5H1v26h41.68c5.16-11.54.78-23.94-.02-26Z" style="fill:#fff;" />
      <path d="M42.64,82.5H1v7.54c0,9.9,8.05,17.96,17.96,17.96h23.7c4.26-11.04.68-23.34-.01-25.5Z" style="fill:#fff;" />
      <path d="M89.85,108h24.2c9.9,0,17.96-8.06,17.96-17.96v-7.54h-42.14c-.69,2.14-4.28,14.44-.01,25.5Z" style="fill:#fff;" />
      <path d="M89.83,81.5h42.17v-26h-42.13c-4.27,14.02-.75,24.18-.04,26Z" style="fill:#fff;" />
      <rect y="28.5" width="1" height="26" />
      <rect y="55.5" width="1" height="26" />
      <path
        d="M18.96,109h95.09c10.45,0,18.96-8.5,18.96-18.96V18.96c0-10.45-8.5-18.96-18.96-18.96H18.96C8.5,0,0,8.5,0,18.96v8.54h1v-8.54C1,9.05,9.05,1,18.96,1h23.69c-.04-.11-.07-.22-.11-.33l.94-.35c.08.22.16.45.23.67h45.09c.08-.22.15-.45.23-.67l.94.35c-.04.11-.07.22-.11.33h24.19c9.9,0,17.96,8.05,17.96,17.96v62.54h.5v1h-.5v7.54c0,9.9-8.05,17.96-17.96,17.96h-24.2c.04.1.08.21.12.31l-.93.37c-.09-.23-.17-.46-.26-.69h-45.06c-.08.23-.17.46-.26.69l-.93-.37c.04-.1.08-.21.12-.31h-23.7c-9.9,0-17.96-8.06-17.96-17.96v-7.54H0v7.54c0,10.45,8.5,18.96,18.96,18.96Z" />
      <path d="M42.52,55.15l.96-.3c.02.06.03.12.05.18,5.53-12.21.67-25.37,0-27.05-.04.11-.06.18-.06.18l-.12.33h-.69c.79,2.06,5.17,14.46.02,26H1v1h41.63c-.04-.12-.07-.23-.1-.35Z" />
      <rect y="54.5" width="1" height="1" />
      <path d="M42.66,28.5c-.07-.18-.12-.29-.12-.3l.92-.39s.03.07.07.18c.55-1.68,4.48-14.51.17-26.98h-1.06c4.27,11.93.69,24.33,0,26.5H1v1h41.66Z" />
      <path d="M43.47.33l-.94.35c.04.11.07.22.11.33h1.06c-.08-.22-.15-.45-.23-.67Z" />
      <rect y="27.5" width="1" height="1" />
      <path d="M43.47,28.17s.03-.07.06-.18c-.04-.11-.07-.17-.07-.18l-.92.39s.05.12.12.3h.69l.12-.33Z" />
      <path d="M89.95,54.79l-.45.21.48.15c-.04.12-.07.23-.1.35h42.13v-1h-42.17c.04.1.08.19.13.29Z" />
      <path d="M89.97,27.83l-.47.17.46.2s-.05.12-.12.3h42.16v-1h-42.14c.06.2.11.32.11.33Z" />
      <path d="M43.53,82.02c-.05.11-.08.18-.08.19l-.91-.41s.05-.11.12-.29H1v1h41.64c.69,2.16,4.27,14.46.01,25.5h1.07c4.28-11.57.37-24.3-.19-25.98Z" />
      <path d="M42.54,108.31l.93.37c.09-.23.17-.46.26-.69h-1.07c-.04.1-.08.21-.12.31Z" />
      <rect y="81.5" width="1" height="1" />
      <path d="M43.32,55.5h-.69c4.27,14.02.75,24.18.04,26h.69l.12.33s.03.07.06.19c.61-1.51,4.56-12.2,0-26.99-.03.06-.05.12-.08.18l-.13.29Z" />
      <path d="M42.52,55.15c.04.12.07.23.1.35h.69l.13-.29c.03-.06.05-.12.08-.18-.02-.06-.03-.12-.05-.18l-.96.3Z" />
      <path d="M43.35,81.5h-.69c-.07.18-.12.28-.12.29l.91.41s.03-.07.08-.19c-.04-.11-.06-.18-.06-.19l-.12-.33Z" />
      <path d="M89,54.5h.83c-5.16-11.54-.78-23.95.01-26h-.84v-.42s-.02-.06-.03-.1c-.66,1.68-5.53,14.84,0,27.05.01-.04.02-.07.03-.1v-.43Z" />
      <path d="M89,54.93s.01-.05.02-.08l.48.15.45-.21c-.04-.1-.08-.19-.13-.29h-.83v.43Z" />
      <path d="M89,28.08v.42h.84c.07-.18.12-.29.12-.3l-.46-.2-.47.17s-.01-.04-.03-.09Z" />
      <path d="M88.97,27.98s.02-.06.03-.08v-.4h.86c-.69-2.15-4.29-14.54,0-26.5h-1.06c-4.31,12.47-.38,25.31.17,26.98Z" />
      <path d="M89.97.67l-.94-.35c-.08.22-.16.45-.23.67h1.06c.04-.11.07-.22.11-.33Z" />
      <path d="M89.5,28l.47-.17s-.05-.13-.11-.33h-.86v.4c.02-.05.04-.09.04-.1l.46.2Z" />
      <path d="M89,27.9s-.02.05-.03.08c.01.04.02.07.03.1v-.18Z" />
      <path d="M89.03,28.17l.47-.17-.46-.2s-.02.04-.04.1v.18s.03.08.03.09Z" />
      <path d="M89.96,81.79l-.45.21.47.17s-.05.13-.11.33h42.14v-1h-42.17c.07.18.12.28.12.29Z" />
      <rect x="132" y="81.5" width=".5" height="1" />
      <path d="M89.86,82.5h-.36v-.5l-.46.21s-.03-.07-.08-.19c-.56,1.69-4.47,14.41-.19,25.98h1.07c-4.26-11.06-.67-23.36.01-25.5Z" />
      <path d="M89.04,108.69l.93-.37c-.04-.1-.08-.21-.12-.31h-1.07c.08.23.17.46.26.69Z" />
      <path d="M89.5,82.5h.36c.06-.2.11-.32.11-.33l-.47-.17h0v.5Z" />
      <path d="M89.5,82v-.5h.33c-.71-1.82-4.23-11.98.04-26h-.87v-.4s-.02-.05-.03-.07c-4.56,14.79-.62,25.48,0,26.99.04-.11.06-.18.06-.19l.47.17Z" />
      <path d="M89,55.1v.4h.87c.04-.12.07-.23.1-.35l-.48-.15-.45.21s-.03-.07-.05-.11Z" />
      <path d="M89,54.93s-.02.07-.03.1c.01.02.02.05.03.07v-.18Z" />
      <path d="M89,54.93v.18s.03.07.05.11l.45-.21-.48-.15s-.01.05-.02.08Z" />
      <path d="M89.5,82h0s.45-.21.45-.21c0,0-.05-.11-.12-.29h-.33v.5Z" />
      <path d="M89.5,82h0s-.47-.17-.47-.17c0,0-.03.07-.06.19.05.11.08.18.08.19l.46-.21Z" />
      <polygon points="89.5 82 89.5 82 89.5 82 89.5 82" />
    </g>
  </g>
</svg>