<?xml version="1.0" encoding="UTF-8"?>
<svg id="b" xmlns="http://www.w3.org/2000/svg" width="133" height="109" viewBox="0 0 133 109">
  <g id="c">
    <g id="d">
      <path d="M37.5,86H1v4.04c0,9.9,8.05,17.96,17.96,17.96h20.04v-22.1c-.49.06-.99.1-1.5.1Z" style="fill:#fff;" />
      <path d="M49,35.5c0-6.34-5.16-11.5-11.5-11.5H1v30h48v-18.5Z" style="fill:#fff;" />
      <path d="M94,84.97v23.03h20.04c9.9,0,17.96-8.06,17.96-17.96v-5.04h-37.5c-.17,0-.33-.02-.5-.03Z" style="fill:#fff;" />
      <path d="M83,72.5c0,6.34,5.16,11.5,11.5,11.5h37.5v-29h-49v17.5Z" style="fill:#fff;" />
      <path d="M94.5,22h37.5v-3.04c0-9.9-8.05-17.96-17.96-17.96h-20.04v21.03c.17,0,.33-.03.5-.03Z" style="fill:#fff;" />
      <path d="M39,23.1V1h-20.04C9.05,1,1,9.05,1,18.96v4.04h36.5c.51,0,1.01.04,1.5.1Z" style="fill:#fff;" />
      <path d="M83,34.5v19.5h49v-31h-37.5c-6.34,0-11.5,5.16-11.5,11.5Z" style="fill:#fff;" />
      <path d="M49,73.5v-18.5H1v30h36.5c6.34,0,11.5-5.16,11.5-11.5Z" style="fill:#fff;" />
      <path d="M82,72.5v-1.5h-32v2.5c0,6.04-4.3,11.09-10,12.25v22.25h53v-23.1c-6.19-.74-11-6.02-11-12.4Z" style="fill:#fff;" />
      <path d="M50,35.5v2.5h32v-3.5c0-6.38,4.81-11.66,11-12.4V1h-53v22.25c5.7,1.16,10,6.21,10,12.25Z" style="fill:#fff;" />
      <rect x="50" y="39" width="32" height="31" style="fill:#fff;" />
      <path d="M114.04,0H18.96C8.5,0,0,8.5,0,18.96v4.04h1v-4.04C1,9.05,9.05,1,18.96,1h20.04v-.5h1v.5h53v-.5h1v.5h20.04c9.9,0,17.96,8.05,17.96,17.96v3.04h1v-3.04c0-10.45-8.5-18.96-18.96-18.96Z" />
      <path d="M132,90.04c0,9.9-8.05,17.96-17.96,17.96h-20.04v.5h-1v-.5h-53v.5h-1v-.5h-20.04c-9.9,0-17.96-8.06-17.96-17.96v-4.04H0v4.04c0,10.45,8.5,18.96,18.96,18.96h95.09c10.45,0,18.96-8.5,18.96-18.96v-5.04h-1v5.04Z" />
      <path d="M37.5,24c6.34,0,11.5,5.16,11.5,11.5v18.5h.5v1h-.5v18.5c0,6.34-5.16,11.5-11.5,11.5H1v1h36.5c.51,0,1.01-.04,1.5-.1v-.4h1v.25c5.7-1.16,10-6.21,10-12.25v-2.5h-.5v-1h.5v-31h-.5v-1h.5v-2.5c0-6.04-4.3-11.09-10-12.25v.25h-1v-.4c-.49-.06-.99-.1-1.5-.1H1v1h36.5Z" />
      <polygon points="1 85 1 55 .5 55 .5 54 1 54 1 24 1 23 0 23 0 86 1 86 1 85" />
      <path d="M94,22.03v.47h-1v-.4c-6.19.74-11,6.02-11,12.4v3.5h.5v1h-.5v31h.5v1h-.5v1.5c0,6.38,4.81,11.66,11,12.4v-.4h1v.47c.17,0,.33.03.5.03h37.5v-1h-37.5c-6.34,0-11.5-5.16-11.5-11.5v-17.5h-.5v-1h.5v-19.5c0-6.34,5.16-11.5,11.5-11.5h37.5v-1h-37.5c-.17,0-.33.02-.5.03Z" />
      <polygon points="132 23 132 54 132.5 54 132.5 55 132 55 132 84 132 85 133 85 133 22 132 22 132 23" />
      <rect x="50" y="38" width="32" height="1" />
      <rect x="49.5" y="38" width=".5" height="1" />
      <rect x="82" y="38" width=".5" height="1" />
      <rect x="50" y="70" width="32" height="1" />
      <rect x="49.5" y="70" width=".5" height="1" />
      <rect x="82" y="70" width=".5" height="1" />
      <path d="M39,85.9v22.1h1v-22.25c-.33.07-.66.11-1,.15Z" />
      <rect x="39" y="108" width="1" height=".5" />
      <path d="M40,85.5h-1v.4c.34-.04.67-.09,1-.15v-.25Z" />
      <path d="M93,84.9v23.1h1v-23.03c-.34-.01-.67-.03-1-.07Z" />
      <rect x="93" y="108" width="1" height=".5" />
      <path d="M94,84.5h-1v.4c.33.04.66.06,1,.07v-.47Z" />
      <rect x="1" y="54" width="48" height="1" />
      <rect x="49" y="54" width=".5" height="1" />
      <rect x=".5" y="54" width=".5" height="1" />
      <rect x="83" y="54" width="49" height="1" />
      <rect x="82.5" y="54" width=".5" height="1" />
      <rect x="132" y="54" width=".5" height="1" />
      <path d="M94,22.03V1h-1v21.1c.33-.04.66-.06,1-.07Z" />
      <rect x="93" y=".5" width="1" height=".5" />
      <path d="M94,22.5v-.47c-.34.01-.67.03-1,.07v.4h1Z" />
      <path d="M40,23.25V1h-1v22.1c.34.04.67.09,1,.15Z" />
      <rect x="39" y=".5" width="1" height=".5" />
      <path d="M39,23.5h1v-.25c-.33-.07-.66-.11-1-.15v.4Z" />
    </g>
  </g>
</svg>