<?xml version="1.0" encoding="UTF-8"?>
<svg id="b" xmlns="http://www.w3.org/2000/svg" width="133" height="109" viewBox="0 0 133 109">
  <g id="c">
    <g id="d">
      <path d="M50.5,38.5v31h31v-31.7l7.67-8.3h42.83v-10.54c0-9.9-8.05-17.96-17.96-17.96h-47.54v37.5h-16Z" style="fill:#fff;" />
      <polygon points="82.5 38.2 82.5 53.5 132 53.5 132 30.5 89.61 30.5 82.5 38.2" style="fill:#fff;" />
      <path d="M50.22,37.5h15.28V1H18.96C9.05,1,1,9.05,1,18.96v10.54h41.77l7.44,8Z" style="fill:#fff;" />
      <path d="M81.77,70.5h-15.27v37.5h47.54c9.9,0,17.96-8.06,17.96-17.96v-10.54h-42.73l-7.5-9Z" style="fill:#fff;" />
      <polygon points="82.5 69.82 89.73 78.5 132 78.5 132 54.5 82.5 54.5 82.5 69.82" style="fill:#fff;" />
      <polygon points="49.5 38.2 42.34 30.5 1 30.5 1 53.5 49.5 53.5 49.5 38.2" style="fill:#fff;" />
      <path d="M50.24,70.5l-7.44,9H1v10.54c0,9.9,8.05,17.96,17.96,17.96h46.54v-37.5h-15.26Z" style="fill:#fff;" />
      <polygon points="49.5 69.82 49.5 54.5 1 54.5 1 78.5 42.32 78.5 49.5 69.82" style="fill:#fff;" />
      <rect y="54.5" width="1" height="24" />
      <path d="M1,18.96C1,9.05,9.05,1,18.96,1h95.09c9.9,0,17.96,8.05,17.96,17.96v71.09c0,9.9-8.05,17.96-17.96,17.96h-47.54v1h47.54c10.45,0,18.96-8.5,18.96-18.96V18.96c0-10.45-8.5-18.96-18.96-18.96H18.96C8.5,0,0,8.5,0,18.96v10.54h1v-10.54Z" />
      <path d="M18.96,109h46.54v-1H18.96c-9.9,0-17.96-8.06-17.96-17.96v-10.54H0v10.54c0,10.45,8.5,18.96,18.96,18.96Z" />
      <rect y="30.5" width="1" height="23" />
      <polygon points="49.5 38.2 49.5 37.5 50.22 37.5 42.77 29.5 1 29.5 1 30.5 42.34 30.5 49.5 38.2" />
      <rect y="29.5" width="1" height="1" />
      <polygon
        points="50.22 37.5 50.37 37.66 49.63 38.34 49.5 38.2 49.5 53.5 49.8 53.5 49.8 54.5 49.5 54.5 49.5 69.82 49.61 69.68 50.39 70.32 50.24 70.5 65.5 70.5 66.5 70.5 81.77 70.5 81.62 70.32 82.38 69.68 82.5 69.82 82.5 54.5 82.5 53.5 82.5 38.2 89.61 30.5 132 30.5 132 29.5 89.17 29.5 81.5 37.8 81.5 69.5 50.5 69.5 50.5 38.5 66.5 38.5 66.5 1 65.5 1 65.5 37.5 50.22 37.5" />
      <polygon points="50.37 37.66 50.22 37.5 49.5 37.5 49.5 38.2 49.63 38.34 50.37 37.66" />
      <polygon points="82.5 69.82 82.5 70.5 81.77 70.5 89.27 79.5 132 79.5 132 78.5 89.73 78.5 82.5 69.82" />
      <polygon points="82.5 69.82 82.38 69.68 81.62 70.32 81.77 70.5 82.5 70.5 82.5 69.82" />
      <polygon points="50.24 70.5 49.5 70.5 49.5 69.82 42.32 78.5 1 78.5 1 79.5 42.79 79.5 50.24 70.5" />
      <rect y="78.5" width="1" height="1" />
      <polygon points="49.61 69.68 49.5 69.82 49.5 70.5 50.24 70.5 50.39 70.32 49.61 69.68" />
      <rect x="65.5" y="70.5" width="1" height="37.5" />
      <rect x="65.5" y="108" width="1" height="1" />
      <rect x="82.5" y="53.5" width="49.5" height="1" />
      <rect x="1" y="53.5" width="48.5" height="1" />
      <rect y="53.5" width="1" height="1" />
      <rect x="49.5" y="53.5" width=".3" height="1" />
    </g>
  </g>
</svg>