<?xml version="1.0" encoding="UTF-8"?>
<svg id="b" xmlns="http://www.w3.org/2000/svg" width="133" height="109" viewBox="0 0 133 109">
  <g id="c">
    <g id="d">
      <rect x="50" y="39" width="32" height="31" style="fill:#fff;" />
      <path d="M82.83,108h31.22c9.9,0,17.96-8.06,17.96-17.96v-19.04h-65.36l16.19,37Z" style="fill:#fff;" />
      <rect x="1" y="39" width="48" height="31" style="fill:#fff;" />
      <path d="M132,38v-19.04c0-9.9-8.05-17.96-17.96-17.96h-31.22l-15.94,37h65.12Z" style="fill:#fff;" />
      <polygon points="50.26 108 81.74 108 65.88 71.76 50.26 108" style="fill:#fff;" />
      <rect x="83" y="39" width="49" height="31" style="fill:#fff;" />
      <polygon points="81.74 1 50.26 1 66.12 37.24 81.74 1" style="fill:#fff;" />
      <path d="M18.96,108h30.22l15.94-37H1v19.04c0,9.9,8.05,17.96,17.96,17.96Z" style="fill:#fff;" />
      <path d="M49.17,1h-30.22C9.05,1,1,9.05,1,18.96v19.04h64.36L49.17,1Z" style="fill:#fff;" />
      <path
        d="M18.96,109h95.09c10.45,0,18.96-8.5,18.96-18.96V18.96c0-10.45-8.5-18.96-18.96-18.96H18.96C8.5,0,0,8.5,0,18.96v71.09c0,10.45,8.5,18.96,18.96,18.96ZM.5,71v-1h.5v-31h-.5v-1h.5v-19.04C1,9.05,9.05,1,18.96,1h30.22l-.13-.3.92-.4.31.7h31.48l.3-.7.92.4-.13.3h31.22c9.9,0,17.96,8.05,17.96,17.96v19.04h.5v1h-.5v31h.5v1h-.5v19.04c0,9.9-8.05,17.96-17.96,17.96h-31.22l.13.3-.92.4-.31-.7h-31.48l-.3.7-.92-.4.13-.3h-30.22c-9.9,0-17.96-8.06-17.96-17.96v-19.04h-.5Z" />
      <polygon points="49 38.5 50 38.5 50 39 82 39 82 38.5 83 38.5 83 39 132 39 132 38 66.88 38 66.58 38.7 65.67 38.7 65.36 38 1 38 1 39 49 39 49 38.5" />
      <rect x="132" y="38" width=".5" height="1" />
      <rect x=".5" y="38" width=".5" height="1" />
      <polygon points="65.42 70.3 66.33 70.3 66.64 71 132 71 132 70 83 70 83 70.5 82 70.5 82 70 50 70 50 70.5 49 70.5 49 70 1 70 1 71 65.12 71 65.42 70.3" />
      <rect x=".5" y="70" width=".5" height="1" />
      <rect x="132" y="70" width=".5" height="1" />
      <rect x="49" y="39" width="1" height="31" />
      <rect x="49" y="38.5" width="1" height=".5" />
      <rect x="49" y="70" width="1" height=".5" />
      <rect x="82" y="39" width="1" height="31" />
      <rect x="82" y="38.5" width="1" height=".5" />
      <rect x="82" y="70" width="1" height=".5" />
      <polygon points="65.12 71 49.17 108 50.26 108 65.88 71.76 81.74 108 82.83 108 66.64 71 65.12 71" />
      <polygon points="49.04 108.3 49.96 108.7 50.26 108 49.17 108 49.04 108.3" />
      <polygon points="82.04 108.7 82.96 108.3 82.83 108 81.74 108 82.04 108.7" />
      <polygon points="66.33 70.3 65.42 70.3 65.12 71 66.64 71 66.33 70.3" />
      <polygon points="66.88 38 82.83 1 81.74 1 66.12 37.24 50.26 1 49.17 1 65.36 38 66.88 38" />
      <polygon points="82.96 .7 82.04 .3 81.74 1 82.83 1 82.96 .7" />
      <polygon points="49.96 .3 49.04 .7 49.17 1 50.26 1 49.96 .3" />
      <polygon points="65.67 38.7 66.58 38.7 66.88 38 65.36 38 65.67 38.7" />
    </g>
  </g>
</svg>