<?xml version="1.0" encoding="UTF-8"?>
<svg id="b" xmlns="http://www.w3.org/2000/svg" width="133" height="109" viewBox="0 0 133 109">
  <g id="c">
    <g id="d">
      <path d="M83,17v10h49v-8.04c0-9.9-8.05-17.96-17.96-17.96h-42.35c6.58,2.35,11.31,8.62,11.31,16Z" style="fill:#fff;" />
      <rect x="83" y="55" width="49" height="27" style="fill:#fff;" />
      <path d="M83,92c0,7.38-4.73,13.65-11.31,16h42.35c9.9,0,17.96-8.06,17.96-17.96v-7.04h-49v9Z" style="fill:#fff;" />
      <path d="M50,17v75c0,8.82,7.18,16,16,16s16-7.18,16-16V17c0-8.82-7.18-16-16-16s-16,7.18-16,16Z" style="fill:#fff;" />
      <path d="M49,17c0-7.38,4.73-13.65,11.31-16H18.96C9.05,1,1,9.05,1,18.96v8.04h48v-10Z" style="fill:#fff;" />
      <rect x="1" y="28" width="48" height="26" style="fill:#fff;" />
      <rect x="1" y="55" width="48" height="27" style="fill:#fff;" />
      <rect x="83" y="28" width="49" height="26" style="fill:#fff;" />
      <path d="M49,92v-9H1v7.04c0,9.9,8.05,17.96,17.96,17.96h41.35c-6.58-2.35-11.31-8.62-11.31-16Z" style="fill:#fff;" />
      <path d="M114.04,1c9.9,0,17.96,8.05,17.96,17.96v8.04h.5v1h-.5v26h1V18.96c0-10.45-8.5-18.96-18.96-18.96h-48.04c2,0,3.91.36,5.69,1h42.35Z" />
      <path d="M18.96,109h47.04c-2,0-3.91-.36-5.69-1H18.96c-9.9,0-17.96-8.06-17.96-17.96V28h-.5v-1h.5v-8.04C1,9.05,9.05,1,18.96,1h41.35c1.78-.64,3.69-1,5.69-1H18.96C8.5,0,0,8.5,0,18.96v71.09c0,10.45,8.5,18.96,18.96,18.96Z" />
      <rect x="132" y="55" width="1" height="27" />
      <path d="M132,90.04c0,9.9-8.05,17.96-17.96,17.96h-42.35c-1.78.64-3.69,1-5.69,1h48.04c10.45,0,18.96-8.5,18.96-18.96v-7.04h-1v7.04Z" />
      <rect x="1" y="27" width="48" height="1" />
      <rect x=".5" y="27" width=".5" height="1" />
      <rect x="83" y="27" width="49" height="1" />
      <rect x="132" y="27" width=".5" height="1" />
      <rect x="1" y="54" width="48" height="1" />
      <rect x="83" y="54" width="49" height="1" />
      <rect x="132" y="54" width="1" height="1" />
      <rect x="1" y="82" width="48" height="1" />
      <rect x="83" y="82" width="49" height="1" />
      <rect x="132" y="82" width="1" height="1" />
      <path d="M50,92v-37h-1v27h.5v1h-.5v9c0,7.38,4.73,13.65,11.31,16h5.69c-8.82,0-16-7.18-16-16Z" />
      <path d="M49,17v10h.5v1h-.5v26h1V17c0-8.82,7.18-16,16-16h-5.69c-6.58,2.35-11.31,8.62-11.31,16Z" />
      <path d="M82,17v75c0,8.82-7.18,16-16,16h5.69c6.58-2.35,11.31-8.62,11.31-16V28h-.5v-1h.5v-10c0-7.38-4.73-13.65-11.31-16h-5.69c8.82,0,16,7.18,16,16Z" />
      <path d="M66,108h-5.69c1.78.64,3.69,1,5.69,1s3.91-.36,5.69-1h-5.69Z" />
      <path d="M66,1h5.69c-1.78-.64-3.69-1-5.69-1s-3.91.36-5.69,1h5.69Z" />
      <rect x="49" y="27" width=".5" height="1" />
      <rect x="82.5" y="27" width=".5" height="1" />
      <rect x="49" y="54" width="1" height="1" />
      <rect x="49" y="82" width=".5" height="1" />
    </g>
  </g>
</svg>