<?xml version="1.0" encoding="UTF-8"?>
<svg id="b" xmlns="http://www.w3.org/2000/svg" width="133" height="109" viewBox="0 0 133 109">
  <g id="c">
    <g id="d">
      <path d="M51.18,38.87c.76-.54,1.67-.87,2.67-.87h11.65V1h-23.5v28.69l9.18,9.18Z" style="fill:#fff;" />
      <path d="M78.15,38c.89,0,1.71.26,2.41.7l9.01-9.01V1h-23.07v37h11.65Z" style="fill:#fff;" />
      <path d="M18.96,108h22.04v-28.12H1v10.16c0,9.9,8.05,17.96,17.96,17.96Z" style="fill:#fff;" />
      <path d="M49.25,42.6c0-1.18.46-2.24,1.19-3.05l-9.14-9.14H1v24.1h48.25v-11.9Z" style="fill:#fff;" />
      <path d="M41,1h-22.04C9.05,1,1,9.05,1,18.96v10.45h40V1Z" style="fill:#fff;" />
      <path d="M80.7,70.72c-.73.49-1.61.78-2.55.78h-11.65v36.5h47.54c9.9,0,17.96-8.06,17.96-17.96v-10.16h-42.14l-9.16-9.16Z" style="fill:#fff;" />
      <path d="M50.35,69.85c-.67-.8-1.1-1.82-1.1-2.95v-11.4H1v23.38h40.29l9.05-9.04Z" style="fill:#fff;" />
      <rect x="50.25" y="39" width="31.5" height="31.5" rx="3.6" ry="3.6" style="fill:#fff;" />
      <path d="M53.85,71.5c-1.05,0-2.01-.37-2.78-.96l-9.07,9.05v28.41h23.5v-36.5h-11.65Z" style="fill:#fff;" />
      <path d="M81.36,39.32c.85.84,1.39,2,1.39,3.28v11.9h49.25v-24.1h-41.72l-8.91,8.91Z" style="fill:#fff;" />
      <path d="M82.75,66.9c0,1.23-.49,2.35-1.28,3.17l8.81,8.81h41.72v-23.38h-49.25v11.4Z" style="fill:#fff;" />
      <path d="M132,29.4v-10.45c0-9.9-8.05-17.96-17.96-17.96h-23.48v28.4h41.43Z" style="fill:#fff;" />
      <path
        d="M18.96,109h95.09c10.45,0,18.96-8.5,18.96-18.96V18.96c0-10.45-8.5-18.96-18.96-18.96H18.96C8.5,0,0,8.5,0,18.96v71.09c0,10.45,8.5,18.96,18.96,18.96ZM.5,79.88v-1h.5v-23.38h-.5v-1h.5v-24.1h-.5v-1h.5v-10.45C1,9.05,9.05,1,18.96,1h22.04v-.5h1v.5h23.5v-.5h1v.5h23.07v-.5h1v.5h23.48c9.9,0,17.96,8.05,17.96,17.96v10.45h.5v1h-.5v24.1h.5v1h-.5v23.38h.5v1h-.5v10.16c0,9.9-8.05,17.96-17.96,17.96h-47.54v.5h-1v-.5h-23.5v.5h-1v-.5h-22.04c-9.9,0-17.96-8.06-17.96-17.96v-10.16h-.5Z" />
      <polygon points="41.15 30.26 41.85 29.55 42 29.69 42 1 41 1 41 29.4 1 29.4 1 30.4 41.29 30.4 41.15 30.26" />
      <rect x="41" y=".5" width="1" height=".5" />
      <rect x=".5" y="29.4" width=".5" height="1" />
      <polygon points="89.71 29.55 90.42 30.26 90.28 30.4 132 30.4 132 29.4 90.57 29.4 90.57 1 89.57 1 89.57 29.69 89.71 29.55" />
      <rect x="132" y="29.4" width=".5" height="1" />
      <rect x="89.57" y=".5" width="1" height=".5" />
      <path d="M81.47,70.07c-.23.24-.48.46-.76.65l9.16,9.16h42.14v-1h-41.72l-8.81-8.81Z" />
      <rect x="132" y="78.88" width=".5" height="1" />
      <polygon points="41 108 42 108 42 79.59 41.85 79.74 41.15 79.03 41.29 78.88 1 78.88 1 79.88 41 79.88 41 108" />
      <rect x="41" y="108" width="1" height=".5" />
      <rect x=".5" y="78.88" width=".5" height="1" />
      <path
        d="M51.39,70.22l-.32.32c.77.59,1.73.96,2.78.96h11.65v-.5h1v.5h11.65c.94,0,1.82-.29,2.55-.78l-.3-.3.71-.71.35.35c.79-.83,1.28-1.94,1.28-3.17v-11.4h-.5v-1h.5v-11.9c0-1.29-.53-2.45-1.39-3.28l-.36.37-.71-.71.27-.27c-.7-.44-1.52-.7-2.41-.7h-11.65v.5h-1v-.5h-11.65c-1,0-1.92.33-2.67.87l.31.31-.71.71-.34-.34c-.73.81-1.19,1.88-1.19,3.05v11.9h.5v1h-.5v11.4c0,1.13.42,2.15,1.1,2.95l.33-.33.71.71ZM50.25,42.6c0-1.98,1.62-3.6,3.6-3.6h24.3c1.98,0,3.6,1.61,3.6,3.6v24.3c0,1.98-1.62,3.6-3.6,3.6h-24.3c-1.98,0-3.6-1.62-3.6-3.6v-24.3Z" />
      <path d="M80.41,70.43l.3.3c.28-.19.53-.41.76-.65l-.35-.35-.71.71Z" />
      <rect x="1" y="54.5" width="48.25" height="1" />
      <rect x=".5" y="54.5" width=".5" height="1" />
      <rect x="49.25" y="54.5" width=".5" height="1" />
      <rect x="82.75" y="54.5" width="49.25" height="1" />
      <rect x="132" y="54.5" width=".5" height="1" />
      <rect x="82.25" y="54.5" width=".5" height="1" />
      <rect x="65.5" y="1" width="1" height="37" />
      <rect x="65.5" y=".5" width="1" height=".5" />
      <rect x="65.5" y="38" width="1" height=".5" />
      <rect x="65.5" y="71.5" width="1" height="36.5" />
      <rect x="65.5" y="108" width="1" height=".5" />
      <rect x="65.5" y="71" width="1" height=".5" />
      <path d="M50.35,69.85l-9.05,9.04h.71v.71l9.07-9.05c-.27-.2-.51-.44-.72-.69Z" />
      <polygon points="41.29 78.88 41.15 79.03 41.85 79.74 42 79.59 42 78.88 41.29 78.88" />
      <path d="M51.07,70.54l.32-.32-.71-.71-.33.33c.22.26.46.49.72.69Z" />
      <path d="M90.28,30.4h-.71v-.71l-9.01,9.01c.29.18.56.38.8.61l8.91-8.91Z" />
      <polygon points="90.28 30.4 90.42 30.26 89.71 29.55 89.57 29.69 89.57 30.4 90.28 30.4" />
      <path d="M81,39.68l.36-.37c-.24-.24-.51-.44-.8-.61l-.27.27.71.71Z" />
      <path d="M51.18,38.87l-9.18-9.18v.71h-.71l9.14,9.14c.22-.25.47-.48.74-.67Z" />
      <polygon points="42 29.69 41.85 29.55 41.15 30.26 41.29 30.4 42 30.4 42 29.69" />
      <path d="M51.48,39.18l-.31-.31c-.27.2-.52.42-.74.67l.34.34.71-.71Z" />
    </g>
  </g>
</svg>