<?xml version="1.0" encoding="UTF-8"?>
<svg id="b" xmlns="http://www.w3.org/2000/svg" width="133" height="109" viewBox="0 0 133 109">
  <g id="c">
    <g id="d">
      <rect x="46" y="21" width="41" height="66" style="fill:#fff;" />
      <rect x="1" y="21" width="44" height="33" style="fill:#fff;" />
      <rect x="1" y="55" width="44" height="32" style="fill:#fff;" />
      <path d="M18.96,108h46.04v-20H1v2.04c0,9.9,8.05,17.96,17.96,17.96Z" style="fill:#fff;" />
      <path d="M65,1H18.96C9.05,1,1,9.05,1,18.96v1.04h64V1Z" style="fill:#fff;" />
      <path d="M132,20v-1.04c0-9.9-8.05-17.96-17.96-17.96h-48.04v19h66Z" style="fill:#fff;" />
      <rect x="88" y="55" width="44" height="32" style="fill:#fff;" />
      <path d="M66,108h48.04c9.9,0,17.96-8.06,17.96-17.96v-2.04h-66v20Z" style="fill:#fff;" />
      <rect x="88" y="21" width="44" height="33" style="fill:#fff;" />
      <path
        d="M18.96,109h95.09c10.45,0,18.96-8.5,18.96-18.96V18.96c0-10.45-8.5-18.96-18.96-18.96H18.96C8.5,0,0,8.5,0,18.96v71.09c0,10.45,8.5,18.96,18.96,18.96ZM.5,88v-1h.5v-32h-.5v-1h.5V21h-.5v-1h.5v-1.04C1,9.05,9.05,1,18.96,1h46.04v-.5h1v.5h48.04c9.9,0,17.96,8.05,17.96,17.96v1.04h.5v1h-.5v33h.5v1h-.5v32h.5v1h-.5v2.04c0,9.9-8.05,17.96-17.96,17.96h-48.04v.5h-1v-.5H18.96c-9.9,0-17.96-8.06-17.96-17.96v-2.04h-.5Z" />
      <polygon points="45 20.5 46 20.5 46 21 87 21 87 20.5 88 20.5 88 21 132 21 132 20 66 20 66 20.5 65 20.5 65 20 1 20 1 21 45 21 45 20.5" />
      <rect x="132" y="20" width=".5" height="1" />
      <rect x=".5" y="20" width=".5" height="1" />
      <polygon points="65 87.5 66 87.5 66 88 132 88 132 87 88 87 88 87.5 87 87.5 87 87 46 87 46 87.5 45 87.5 45 87 1 87 1 88 65 88 65 87.5" />
      <rect x=".5" y="87" width=".5" height="1" />
      <rect x="132" y="87" width=".5" height="1" />
      <polygon points="45 21 45 54 45.5 54 45.5 55 45 55 45 87 46 87 46 21 45 21" />
      <rect x="45" y="20.5" width="1" height=".5" />
      <rect x="45" y="87" width="1" height=".5" />
      <polygon points="87.5 55 87.5 54 88 54 88 21 87 21 87 87 88 87 88 55 87.5 55" />
      <rect x="87" y="20.5" width="1" height=".5" />
      <rect x="87" y="87" width="1" height=".5" />
      <rect x="88" y="54" width="44" height="1" />
      <rect x="132" y="54" width=".5" height="1" />
      <rect x="87.5" y="54" width=".5" height="1" />
      <rect x="1" y="54" width="44" height="1" />
      <rect x=".5" y="54" width=".5" height="1" />
      <rect x="45" y="54" width=".5" height="1" />
      <rect x="65" y="88" width="1" height="20" />
      <rect x="65" y="108" width="1" height=".5" />
      <rect x="65" y="87.5" width="1" height=".5" />
      <rect x="65" y="1" width="1" height="19" />
      <rect x="65" y=".5" width="1" height=".5" />
      <rect x="65" y="20" width="1" height=".5" />
    </g>
  </g>
</svg>