<?xml version="1.0" encoding="UTF-8"?>
<svg id="b" xmlns="http://www.w3.org/2000/svg" width="73.77" height="93.49" viewBox="0 0 73.77 93.49">
  <g id="c">
    <path
      d="M56.53,93.27c-1.5-.43-3.02-2.22-3.34-3.92-.21-1.11.05-1.88,1.64-4.96,6.43-12.44,9.22-23.88,9.22-37.77s-2.47-23.87-8.62-36.39c-1.32-2.69-2.4-5.18-2.4-5.54,0-1.33,1.11-3.26,2.32-4.02,1.66-1.04,4.43-.84,5.76.4.51.48,1.84,2.66,2.95,4.84,4.4,8.63,7.41,18.1,8.9,27.96.92,6.1,1.1,17.66.37,23.25-1.36,10.3-4.08,19.5-8.43,28.5-2.63,5.44-4.28,7.68-5.67,7.68-.28,0-.73.07-1,.15-.28.08-1.04,0-1.69-.19h0ZM38.64,83.91c-2.3-.67-3.96-3.49-3.3-5.61.16-.51,1.24-2.87,2.41-5.24,4.92-10.04,6.97-20.8,5.97-31.37-.82-8.68-2.38-14.16-6.3-22.17-2.63-5.38-2.75-6.21-1.22-8.37,1.45-2.06,5.08-2.39,6.99-.64,1.32,1.21,5.43,9.8,7.02,14.66,5.25,16.09,4.45,33.35-2.28,49.16-3.45,8.09-5.87,10.6-9.28,9.6h0ZM20.19,74.42c-1.42-.64-2.65-2.14-2.98-3.66-.2-.92.15-1.94,1.83-5.36,6.2-12.55,6.26-24.64.2-36.9-2.66-5.38-2.72-6.46-.47-8.58,1.11-1.05,1.58-1.23,3.14-1.23,2.62,0,3.97,1.31,6.31,6.12,3.6,7.39,5.07,13.8,5.06,22.01-.01,8.44-1.39,14.23-5.23,22.02-2.2,4.46-3.29,5.64-5.49,5.94-.67.09-1.74-.07-2.38-.35h0ZM2.97,65.58c-1.13-.47-2.41-2-2.8-3.33-.43-1.49-.08-2.67,1.61-5.45,2.18-3.58,2.68-5.5,2.68-10.17s-.51-6.59-2.68-10.17c-.74-1.21-1.48-2.67-1.65-3.23-.7-2.36,1.26-5.25,3.9-5.74,2.24-.42,3.77.58,5.83,3.79,5.95,9.29,5.95,21.71,0,30.92-2.1,3.25-4.44,4.4-6.9,3.38h0Z"
      style="fill:#fff; fill-rule:evenodd;" />
  </g>
</svg>