<?xml version="1.0" encoding="UTF-8"?>
<svg xmlns="http://www.w3.org/2000/svg" version="1.1" xmlns:ooo="http://xml.openoffice.org/svg/export" xmlns:svg="http://www.w3.org/2000/svg" viewBox="0 0 67.5 66">
  <!-- Generator: Adobe Illustrator 29.0.1, SVG Export Plug-In . SVG Version: 2.1.0 Build 192)  -->
  <defs>
    <style>
      .st0 {
        fill: #a32043;
      }

      .st1 {
        fill: none;
      }

      .st2 {
        display: none;
      }

      .st3 {
        fill: #771735;
      }
    </style>
  </defs>
  <g id="svg59" class="st2">
    <polygon class="st1" points="31.7 37.6 27.2 34.8 20.7 44.3 31.7 37.6"/>
    <polygon class="st1" points="29 26.1 24.7 22.5 28.1 26.7 29 26.1"/>
    <polygon class="st1" points="46.1 41.7 40.4 38.2 37.2 40.1 47.9 46.8 48.7 46.8 46.1 41.7"/>
    <polygon class="st1" points="19 45.4 27 33.7 32.5 37.1 35.7 35.2 29.1 31 32.5 28.9 29.7 26.6 27.9 27.8 21.5 20 18.3 17.4 18.3 21.5 25.3 30 18.3 40.5 18.3 45.8 19 45.4"/>
    <polygon class="st1" points="18.3 39.1 24.3 30 18.3 22.8 18.3 39.1"/>
    <polygon class="st1" points="49.6 24.3 46 30.8 49.6 37.6 49.6 24.3"/>
    <polygon class="st1" points="34.2 23.8 37 26.1 47 19.8 49.3 15.4 47.4 15.4 34.2 23.8"/>
    <polygon class="st1" points="37.6 26.6 41.5 29.8 46.2 21.3 37.6 26.6"/>
    <polygon class="st1" points="41.2 37.7 45.4 40.3 43.3 36.4 41.2 37.7"/>
    <polygon class="st1" points="23.8 15.4 33.5 23.2 45.9 15.4 23.8 15.4"/>
    <polygon class="st1" points="26.1 46.8 46.3 46.8 36.4 40.6 26.1 46.8"/>
    <path class="st0" d="M13.3,12.3v41.4h41.4V12.3H13.3ZM25.3,31.9l-7.1-8.5v-4.1l3.2,2.6,6.4,7.8,1.8-1.1,2.8,2.3-3.4,2.1,6.6,4.2-3.2,2-5.5-3.5-8,11.7-.7.4v-5.3l7.1-10.5h0ZM18.3,41v-16.3l6,7.3-6,9ZM24.7,24.4l4.4,3.5-1,.6-3.4-4.1ZM33.2,31.3l5.1,4.1-1.8,1.1-6.4-3.5,3-1.8h.1ZM31.7,39.5l-11,6.7,6.5-9.6,4.5,2.8h0ZM37.2,42l3.2-1.9,5.7,3.6,2.6,5h-.8s-10.7-6.7-10.7-6.7ZM46.3,48.7h-20.2l10.3-6.2s9.9,6.2,9.9,6.2ZM41.2,39.6l2.1-1.3,2,3.9s-4.1-2.6-4.1-2.6ZM49.6,26.2v13.4l-3.6-6.9s3.6-6.5,3.6-6.5ZM23.8,17.3h22.1l-12.4,7.8s-9.7-7.8-9.7-7.8ZM37.6,28.5l8.5-5.4-4.6,8.5-3.9-3.1ZM47,21.7l-10,6.3-2.8-2.3,13.3-8.4h1.9l-2.4,4.4Z"/>
  </g>
  <g id="Layer_2">
    <path class="st3" d="M49.5,17.2v.2s-.6,4.3-.6,4.3l-17.6,9-1.1.6,1,.7,17.7,12.3v4.3c0,0,0,.1,0,.1h-1.1l-1-.7-17.9-14.1-.7-.6-.4.8-7.4,13.7h-2.3v-5.4l.7-.9,7-9.7.4-.5-.5-.5-7-6.8-.6-.6v-5.4h0s0,0,0,0l9.6,10.6.4.5.5-.3,16.9-10.9,1-.7h2.8M49.6,16.5h-3.1l-1.2.8-16.9,10.9-9.9-10.9h-1.2s0,6.5,0,6.5l.8.8,7,6.8-7,9.7-.8,1.1v6.4h.8s2.6,0,2.6,0l7.6-14.1,17.9,14.1,1.2.9h2.1v-5.6c0,0-18-12.6-18-12.6l18-9.2.6-4.7.9-.7-1.5-.3h0Z"/>
    <path class="st0" d="M13.3,12.3v41.4h41.4V12.3H13.3ZM49.4,17.3l-8.3,12.4-17.3-12.4h25.6ZM48.7,48.7h-22.6l15-10.6,7.6,10.6ZM18.2,19.3l18.7,14.6-18.7,13.9v-28.5ZM49.6,39.6l-4.3-5.7,4.3-7.7v13.4Z"/>
  </g>
</svg>